<svg width="512" height="512" viewBox="0 0 512 512" fill="none" xmlns="http://www.w3.org/2000/svg">
<rect width="512" height="512" rx="256" fill="url(#paint0_linear_1433_26)"/>
<g filter="url(#filter0_d_1433_26)">
<path d="M184.758 159.28V306.558C184.758 348.807 219.007 383.056 261.256 383.056H295.427C337.676 383.056 371.925 348.807 371.925 306.558V159.28" stroke="#FFF9FB" stroke-width="53.709" stroke-linecap="round"/>
<path d="M285.143 281.333C292.748 296.144 296.061 316.191 310.395 324.557C312.64 325.867 318.328 328.481 320.694 329.59C331.894 334.838 343.51 335.045 356.695 335.045C393.185 335.045 411.549 303.094 411.549 303.094H339.03H311.818L337.668 216.966L285.143 281.333Z" fill="#FFF9FB"/>
<path d="M345.161 170.567C345.14 164.34 350.183 159.28 356.411 159.28H387.459C393.673 159.28 398.709 164.317 398.709 170.53V275.038C398.709 281.236 393.695 286.267 387.496 286.287L345.548 286.425L345.161 170.567Z" fill="#FFF9FB"/>
<path d="M157.965 213.296C157.965 207.083 163.002 202.046 169.215 202.046H200.301C206.514 202.046 211.551 207.083 211.551 213.296V290.955C211.551 297.168 206.514 302.204 200.301 302.204H157.965V213.296Z" fill="#FFF9FB"/>
<path d="M188.845 291.448L208.604 291.448C208.924 305.617 210.49 304.954 216.34 315.58L188.845 322.21V291.448Z" fill="#FFF9FB"/>
<path d="M330.598 334.658C316.53 326.292 305.02 313.946 297.557 299.135H234.819H224.385C202.46 299.135 184.687 281.362 184.687 259.438C184.687 237.514 202.46 219.741 224.385 219.741H297.557C299.995 214.902 302.865 210.326 306.115 206.067C321.743 185.584 346.156 172.406 373.59 172.406C409.856 172.406 440.843 195.436 453.234 227.926H351.193V291.977H376.604H402.014H427.425H452.76H452.835L452.76 292.167C440.066 324.014 409.402 346.47 373.59 346.47C360.649 346.47 348.381 343.538 337.389 338.29C335.066 337.181 332.801 335.968 330.598 334.658Z" fill="#FF495C"/>
<path d="M452.76 292.167C452.785 292.104 452.81 292.041 452.835 291.977M452.76 292.167V291.977H452.835M452.76 292.167C440.066 324.014 409.402 346.47 373.59 346.47C360.649 346.47 348.381 343.538 337.389 338.29C335.066 337.181 332.801 335.968 330.598 334.658C316.53 326.292 305.02 313.946 297.557 299.135H234.819H224.385C202.46 299.135 184.687 281.362 184.687 259.438V259.438C184.687 237.514 202.46 219.741 224.385 219.741H297.557C299.995 214.902 302.865 210.326 306.115 206.067C321.743 185.584 346.156 172.406 373.59 172.406C409.856 172.406 440.843 195.436 453.234 227.926H351.193V291.977H376.604H402.014H427.425H452.835M452.76 292.167L452.835 291.977" stroke="#FF495C" stroke-width="11.2497"/>
<g filter="url(#filter1_d_1433_26)">
<mask id="path-9-outside-1_1433_26" maskUnits="userSpaceOnUse" x="44.2501" y="156.861" width="430" height="213" fill="black">
<rect fill="white" x="44.2501" y="156.861" width="430" height="213"/>
<path fill-rule="evenodd" clip-rule="evenodd" d="M453.75 237.63H349.169V290.432H453.472L450.338 298.323C436.84 332.188 404.182 356.175 365.94 356.175C352.141 356.175 339.046 353.046 327.316 347.446C324.839 346.263 322.422 344.97 320.073 343.573C306.11 335.269 294.527 323.298 286.586 308.965H147.24C136.605 308.965 127.984 300.344 127.984 289.709C127.984 287.117 128.495 284.646 129.424 282.389H117.497C106.862 282.389 98.2405 273.768 98.2405 263.133C98.2405 260.544 98.7514 258.075 99.6777 255.82H77.1246C66.7005 255.82 58.2501 247.369 58.2501 236.945C58.2501 226.521 66.7005 218.071 77.1246 218.071H260.095C260.833 218.071 261.562 218.113 262.277 218.196H286.517C288.733 214.18 291.235 210.351 293.994 206.734C310.625 184.937 336.654 170.861 365.94 170.861C404.668 170.861 437.665 195.453 450.84 230.001L453.75 237.63Z"/>
</mask>
<path fill-rule="evenodd" clip-rule="evenodd" d="M453.75 237.63H349.169V290.432H453.472L450.338 298.323C436.84 332.188 404.182 356.175 365.94 356.175C352.141 356.175 339.046 353.046 327.316 347.446C324.839 346.263 322.422 344.97 320.073 343.573C306.11 335.269 294.527 323.298 286.586 308.965H147.24C136.605 308.965 127.984 300.344 127.984 289.709C127.984 287.117 128.495 284.646 129.424 282.389H117.497C106.862 282.389 98.2405 273.768 98.2405 263.133C98.2405 260.544 98.7514 258.075 99.6777 255.82H77.1246C66.7005 255.82 58.2501 247.369 58.2501 236.945C58.2501 226.521 66.7005 218.071 77.1246 218.071H260.095C260.833 218.071 261.562 218.113 262.277 218.196H286.517C288.733 214.18 291.235 210.351 293.994 206.734C310.625 184.937 336.654 170.861 365.94 170.861C404.668 170.861 437.665 195.453 450.84 230.001L453.75 237.63Z" fill="#252627"/>
<path d="M349.169 237.63V224.03H335.569V237.63H349.169ZM453.75 237.63V251.23H473.492L466.457 232.784L453.75 237.63ZM349.169 290.432H335.569V304.032H349.169V290.432ZM453.472 290.432L466.112 295.453L473.508 276.832H453.472V290.432ZM450.338 298.323L462.971 303.359L462.974 303.351L462.977 303.344L450.338 298.323ZM327.316 347.446L333.176 335.173L333.176 335.173L327.316 347.446ZM320.073 343.573L327.025 331.884L327.025 331.883L320.073 343.573ZM286.586 308.965L298.483 302.374L294.599 295.365H286.586V308.965ZM129.424 282.389L142.001 287.562L149.722 268.789H129.424V282.389ZM99.6777 255.82L112.257 260.988L119.968 242.22H99.6777V255.82ZM262.277 218.196L260.722 231.706L261.497 231.796H262.277V218.196ZM286.517 218.196V231.796H294.544L298.423 224.768L286.517 218.196ZM293.994 206.734L304.806 214.984L304.806 214.984L293.994 206.734ZM450.84 230.001L463.548 225.155V225.155L450.84 230.001ZM349.169 251.23H453.75V224.03H349.169V251.23ZM362.769 290.432V237.63H335.569V290.432H362.769ZM453.472 276.832H349.169V304.032H453.472V276.832ZM462.977 303.344L466.112 295.453L440.833 285.412L437.699 293.303L462.977 303.344ZM365.94 369.775C410.061 369.775 447.53 342.099 462.971 303.359L437.704 293.288C426.15 322.277 398.303 342.575 365.94 342.575V369.775ZM321.457 359.719C334.971 366.171 350.064 369.775 365.94 369.775V342.575C354.218 342.575 343.121 339.921 333.176 335.173L321.457 359.719ZM313.122 355.262C315.824 356.869 318.604 358.357 321.457 359.719L333.176 335.173C331.073 334.169 329.021 333.071 327.025 331.884L313.122 355.262ZM274.69 315.556C283.788 331.977 297.069 345.716 313.122 355.262L327.025 331.883C315.151 324.823 305.266 314.619 298.483 302.374L274.69 315.556ZM147.24 322.565H286.586V295.365H147.24V322.565ZM114.384 289.709C114.384 307.855 129.094 322.565 147.24 322.565V295.365C144.116 295.365 141.584 292.833 141.584 289.709H114.384ZM116.846 277.216C115.254 281.085 114.384 285.312 114.384 289.709H141.584C141.584 288.922 141.737 288.206 142.001 287.562L116.846 277.216ZM117.497 295.989H129.424V268.789H117.497V295.989ZM84.6405 263.133C84.6405 281.279 99.3509 295.989 117.497 295.989V268.789C114.373 268.789 111.841 266.257 111.841 263.133H84.6405ZM87.0979 250.652C85.5096 254.518 84.6405 258.741 84.6405 263.133H111.841C111.841 262.347 111.993 261.631 112.257 260.988L87.0979 250.652ZM77.1246 269.42H99.6777V242.22H77.1246V269.42ZM44.6501 236.945C44.6501 254.88 59.1895 269.42 77.1246 269.42V242.22C74.2116 242.22 71.8501 239.858 71.8501 236.945H44.6501ZM77.1246 204.471C59.1895 204.471 44.6501 219.01 44.6501 236.945H71.8501C71.8501 234.032 74.2116 231.671 77.1246 231.671V204.471ZM260.095 204.471H77.1246V231.671H260.095V204.471ZM263.833 204.685C262.602 204.543 261.354 204.471 260.095 204.471V231.671C260.313 231.671 260.521 231.683 260.722 231.706L263.833 204.685ZM286.517 204.596H262.277V231.796H286.517V204.596ZM283.182 198.485C280.019 202.631 277.151 207.021 274.611 211.623L298.423 224.768C300.316 221.34 302.451 218.071 304.806 214.984L283.182 198.485ZM365.94 157.261C332.174 157.261 302.237 173.511 283.182 198.485L304.806 214.984C319.013 196.364 341.134 184.461 365.94 184.461V157.261ZM463.548 225.155C448.475 185.634 410.621 157.261 365.94 157.261V184.461C398.714 184.461 426.854 205.273 438.133 234.847L463.548 225.155ZM466.457 232.784L463.548 225.155L438.133 234.847L441.043 242.477L466.457 232.784Z" fill="#FFF9FB" mask="url(#path-9-outside-1_1433_26)"/>
</g>
<path d="M345.124 144.243C345.124 135.794 351.974 128.944 360.424 128.944H383.41C391.86 128.944 398.71 135.794 398.71 144.243V290.515H345.124V144.243Z" fill="#FFF9FB"/>
<path d="M157.965 144.243C157.965 135.794 164.815 128.944 173.265 128.944H196.251C204.701 128.944 211.55 135.791 211.55 144.241C211.55 215.467 211.55 292.356 211.55 292.356C211.55 292.356 211.55 331.156 229.451 344.927L211.55 360.742L162.978 331.156C157.437 315.432 159.672 308.437 157.965 292.356V144.243Z" fill="#FFF9FB"/>
</g>
<defs>
<filter id="filter0_d_1433_26" x="40.5541" y="128.944" width="437.05" height="289.159" filterUnits="userSpaceOnUse" color-interpolation-filters="sRGB">
<feFlood flood-opacity="0" result="BackgroundImageFix"/>
<feColorMatrix in="SourceAlpha" type="matrix" values="0 0 0 0 0 0 0 0 0 0 0 0 0 0 0 0 0 0 127 0" result="hardAlpha"/>
<feOffset dy="4.096"/>
<feGaussianBlur stdDeviation="2.048"/>
<feComposite in2="hardAlpha" operator="out"/>
<feColorMatrix type="matrix" values="0 0 0 0 0 0 0 0 0 0 0 0 0 0 0 0 0 0 0.25 0"/>
<feBlend mode="normal" in2="BackgroundImageFix" result="effect1_dropShadow_1433_26"/>
<feBlend mode="normal" in="SourceGraphic" in2="effect1_dropShadow_1433_26" result="shape"/>
</filter>
<filter id="filter1_d_1433_26" x="40.5541" y="155.213" width="437.05" height="220.706" filterUnits="userSpaceOnUse" color-interpolation-filters="sRGB">
<feFlood flood-opacity="0" result="BackgroundImageFix"/>
<feColorMatrix in="SourceAlpha" type="matrix" values="0 0 0 0 0 0 0 0 0 0 0 0 0 0 0 0 0 0 127 0" result="hardAlpha"/>
<feOffset dy="2.048"/>
<feGaussianBlur stdDeviation="2.048"/>
<feComposite in2="hardAlpha" operator="out"/>
<feColorMatrix type="matrix" values="0 0 0 0 0 0 0 0 0 0 0 0 0 0 0 0 0 0 0.25 0"/>
<feBlend mode="normal" in2="BackgroundImageFix" result="effect1_dropShadow_1433_26"/>
<feBlend mode="normal" in="SourceGraphic" in2="effect1_dropShadow_1433_26" result="shape"/>
</filter>
<linearGradient id="paint0_linear_1433_26" x1="33.9147" y1="-198.829" x2="460.16" y2="482.524" gradientUnits="userSpaceOnUse">
<stop stop-color="#AA4465"/>
<stop offset="0.868258" stop-color="#FF495C"/>
</linearGradient>
</defs>
</svg>
