<svg width="512" height="512" viewBox="0 0 512 512" fill="none" xmlns="http://www.w3.org/2000/svg">
<rect width="512" height="512" fill="url(#paint0_linear_1524_2)"/>
<g filter="url(#filter0_d_1524_2)">
<path d="M191.118 179.455V296.012C191.118 329.448 218.224 356.554 251.66 356.554H278.703C312.139 356.554 339.245 329.448 339.245 296.012V179.455" stroke="#FFF9FB" stroke-width="42.5058" stroke-linecap="round"/>
<path d="M270.563 276.049C276.582 287.77 279.203 303.636 290.548 310.257C292.324 311.294 296.826 313.362 298.699 314.24C307.562 318.393 316.755 318.557 327.19 318.557C356.069 318.557 370.602 293.271 370.602 293.271H313.21H291.674L312.132 225.108L270.563 276.049Z" fill="#FFF9FB"/>
<path d="M318.062 188.388C318.046 183.459 322.037 179.455 326.965 179.455H351.538C356.455 179.455 360.441 183.441 360.441 188.358V271.067C360.441 275.972 356.473 279.954 351.567 279.97L318.369 280.078L318.062 188.388Z" fill="#FFF9FB"/>
<path d="M169.914 222.204C169.914 217.287 173.9 213.3 178.817 213.3H203.419C208.336 213.3 212.322 217.287 212.322 222.204V283.663C212.322 288.581 208.336 292.567 203.419 292.567H169.914V222.204Z" fill="#FFF9FB"/>
<path d="M194.353 284.054L209.99 284.054C210.243 295.268 211.482 294.742 216.112 303.152L194.353 308.399V284.054Z" fill="#FFF9FB"/>
<path d="M306.537 318.251C295.404 311.63 286.295 301.86 280.388 290.138H230.737H222.479C205.128 290.138 191.062 276.072 191.062 258.721C191.062 241.37 205.128 227.304 222.479 227.304H280.388C282.318 223.475 284.59 219.854 287.162 216.482C299.529 200.272 318.85 189.843 340.561 189.843C369.263 189.843 393.787 208.069 403.593 233.782H322.837V284.473H342.947H363.057H383.167H403.217H403.277L403.217 284.623C393.172 309.827 368.903 327.599 340.561 327.599C330.32 327.599 320.611 325.278 311.912 321.125C310.074 320.247 308.281 319.288 306.537 318.251Z" fill="#FF495C"/>
<path d="M403.217 284.623C403.237 284.573 403.257 284.523 403.277 284.473M403.217 284.623V284.473H403.277M403.217 284.623C393.172 309.827 368.903 327.599 340.561 327.599C330.32 327.599 320.611 325.278 311.912 321.125C310.074 320.247 308.281 319.288 306.537 318.251C295.404 311.63 286.295 301.86 280.388 290.138H230.737H222.479C205.128 290.138 191.062 276.072 191.062 258.721V258.721C191.062 241.37 205.128 227.304 222.479 227.304H280.388C282.318 223.475 284.59 219.854 287.162 216.482C299.529 200.272 318.85 189.843 340.561 189.843C369.263 189.843 393.787 208.069 403.593 233.782H322.837V284.473H342.947H363.057H383.167H403.277M403.217 284.623L403.277 284.473" stroke="#FF495C" stroke-width="8.90316"/>
<g filter="url(#filter1_d_1524_2)">
<mask id="path-8-outside-1_1524_2" maskUnits="userSpaceOnUse" x="79.998" y="177.62" width="340" height="168" fill="black">
<rect fill="white" x="79.998" y="177.62" width="340" height="168"/>
<path fill-rule="evenodd" clip-rule="evenodd" d="M404 241.462H321.234V283.25H403.78L401.3 289.495C390.617 316.296 364.772 335.279 334.507 335.279C323.586 335.279 313.222 332.803 303.939 328.371C301.978 327.435 300.066 326.412 298.207 325.306C287.157 318.735 277.989 309.26 271.705 297.917H161.426C153.009 297.917 146.186 291.094 146.186 282.678C146.186 280.627 146.591 278.671 147.325 276.885H137.887C129.47 276.885 122.647 270.062 122.647 261.645C122.647 259.596 123.051 257.642 123.784 255.858H105.935C97.6858 255.858 90.998 249.17 90.998 240.92C90.998 232.67 97.6858 225.983 105.935 225.983H250.74C251.324 225.983 251.901 226.016 252.467 226.081H271.65C273.404 222.904 275.384 219.873 277.568 217.011C290.729 199.761 311.329 188.62 334.507 188.62C365.156 188.62 390.872 207.643 401.3 234.985L404 241.462Z"/>
</mask>
<path fill-rule="evenodd" clip-rule="evenodd" d="M404 241.462H321.234V283.25H403.78L401.3 289.495C390.617 316.296 364.772 335.279 334.507 335.279C323.586 335.279 313.222 332.803 303.939 328.371C301.978 327.435 300.066 326.412 298.207 325.306C287.157 318.735 277.989 309.26 271.705 297.917H161.426C153.009 297.917 146.186 291.094 146.186 282.678C146.186 280.627 146.591 278.671 147.325 276.885H137.887C129.47 276.885 122.647 270.062 122.647 261.645C122.647 259.596 123.051 257.642 123.784 255.858H105.935C97.6858 255.858 90.998 249.17 90.998 240.92C90.998 232.67 97.6858 225.983 105.935 225.983H250.74C251.324 225.983 251.901 226.016 252.467 226.081H271.65C273.404 222.904 275.384 219.873 277.568 217.011C290.729 199.761 311.329 188.62 334.507 188.62C365.156 188.62 390.872 207.643 401.3 234.985L404 241.462Z" fill="#252627"/>
<path d="M321.234 241.462V231.17H310.942V241.462H321.234ZM404 241.462V251.754H419.441L413.5 237.502L404 241.462ZM321.234 283.25H310.942V293.542H321.234V283.25ZM403.78 283.25L413.345 287.05L418.943 272.958H403.78V283.25ZM401.3 289.495L410.86 293.306L410.865 293.295L401.3 289.495ZM303.939 328.371L308.374 319.083L308.374 319.083L303.939 328.371ZM298.207 325.306L292.947 334.152L292.947 334.152L298.207 325.306ZM271.705 297.917L280.708 292.93L277.769 287.625H271.705V297.917ZM147.325 276.885L156.844 280.799L162.687 266.593H147.325V276.885ZM123.784 255.858L133.304 259.769L139.139 245.565H123.784V255.858ZM252.467 226.081L251.29 236.306L251.877 236.373H252.467V226.081ZM271.65 226.081V236.373H277.725L280.661 231.055L271.65 226.081ZM277.568 217.011L285.75 223.254L285.75 223.254L277.568 217.011ZM401.3 234.985L391.683 238.652L391.739 238.799L391.8 238.945L401.3 234.985ZM321.234 251.754H404V231.17H321.234V251.754ZM331.526 283.25V241.462H310.942V283.25H331.526ZM403.78 272.958H321.234V293.542H403.78V272.958ZM410.865 293.295L413.345 287.05L394.215 279.451L391.735 285.696L410.865 293.295ZM334.507 345.572C369.221 345.572 398.707 323.796 410.86 293.306L391.739 285.685C382.527 308.796 360.323 324.987 334.507 324.987V345.572ZM299.505 337.659C310.139 342.736 322.014 345.572 334.507 345.572V324.987C325.157 324.987 316.306 322.871 308.374 319.083L299.505 337.659ZM292.947 334.152C295.072 335.416 297.26 336.587 299.505 337.659L308.374 319.083C306.696 318.283 305.06 317.407 303.468 316.46L292.947 334.152ZM262.702 302.905C269.862 315.829 280.315 326.64 292.947 334.152L303.468 316.46C293.999 310.829 286.117 302.692 280.708 292.93L262.702 302.905ZM161.426 308.209H271.705V287.625H161.426V308.209ZM135.894 282.678C135.894 296.778 147.325 308.209 161.426 308.209V287.625C158.693 287.625 156.478 285.41 156.478 282.678H135.894ZM137.807 272.97C136.57 275.976 135.894 279.261 135.894 282.678H156.478C156.478 281.993 156.611 281.365 156.844 280.799L137.807 272.97ZM137.887 287.177H147.325V266.593H137.887V287.177ZM112.355 261.645C112.355 275.746 123.786 287.177 137.887 287.177V266.593C135.154 266.593 132.939 264.378 132.939 261.645H112.355ZM114.264 251.946C113.03 254.95 112.355 258.232 112.355 261.645H132.939C132.939 260.961 133.072 260.334 133.304 259.769L114.264 251.946ZM105.935 266.15H123.784V245.565H105.935V266.15ZM80.706 240.92C80.706 254.854 92.0016 266.15 105.935 266.15V245.565C103.37 245.565 101.29 243.486 101.29 240.92H80.706ZM105.935 215.691C92.0016 215.691 80.706 226.986 80.706 240.92H101.29C101.29 238.355 103.37 236.275 105.935 236.275V215.691ZM250.74 215.691H105.935V236.275H250.74V215.691ZM253.644 215.857C252.688 215.747 251.719 215.691 250.74 215.691V236.275C250.93 236.275 251.114 236.286 251.29 236.306L253.644 215.857ZM271.65 215.789H252.467V236.373H271.65V215.789ZM269.385 210.768C266.896 214.031 264.639 217.486 262.64 221.108L280.661 231.055C282.17 228.322 283.872 225.715 285.75 223.254L269.385 210.768ZM334.507 178.328C307.939 178.328 284.381 191.113 269.385 210.768L285.75 223.254C297.077 208.408 314.72 198.912 334.507 198.912V178.328ZM410.916 231.317C399.04 200.176 369.624 178.328 334.507 178.328V198.912C360.688 198.912 382.705 215.11 391.683 238.652L410.916 231.317ZM413.5 237.502L410.799 231.024L391.8 238.945L394.5 245.422L413.5 237.502Z" fill="#FFF9FB" mask="url(#path-8-outside-1_1524_2)"/>
</g>
<path d="M318.032 167.555C318.032 160.868 323.454 155.447 330.141 155.447H348.332C355.019 155.447 360.441 160.868 360.441 167.555V283.315H318.032V167.555Z" fill="#FFF9FB"/>
<path d="M169.913 167.555C169.913 160.868 175.334 155.447 182.021 155.447H200.213C206.9 155.447 212.321 160.866 212.321 167.553C212.321 223.922 212.321 284.772 212.321 284.772C212.321 284.772 212.321 315.479 226.488 326.378L212.321 338.894L173.881 315.479C169.495 303.035 171.264 297.499 169.913 284.772V167.555Z" fill="#FFF9FB"/>
</g>
<defs>
<filter id="filter0_d_1524_2" x="77.6063" y="155.447" width="344.934" height="228.559" filterUnits="userSpaceOnUse" color-interpolation-filters="sRGB">
<feFlood flood-opacity="0" result="BackgroundImageFix"/>
<feColorMatrix in="SourceAlpha" type="matrix" values="0 0 0 0 0 0 0 0 0 0 0 0 0 0 0 0 0 0 127 0" result="hardAlpha"/>
<feOffset dy="3.09974"/>
<feGaussianBlur stdDeviation="1.54987"/>
<feComposite in2="hardAlpha" operator="out"/>
<feColorMatrix type="matrix" values="0 0 0 0 0 0 0 0 0 0 0 0 0 0 0 0 0 0 0.25 0"/>
<feBlend mode="normal" in2="BackgroundImageFix" result="effect1_dropShadow_1524_2"/>
<feBlend mode="normal" in="SourceGraphic" in2="effect1_dropShadow_1524_2" result="shape"/>
</filter>
<filter id="filter1_d_1524_2" x="77.6063" y="176.778" width="344.934" height="173.443" filterUnits="userSpaceOnUse" color-interpolation-filters="sRGB">
<feFlood flood-opacity="0" result="BackgroundImageFix"/>
<feColorMatrix in="SourceAlpha" type="matrix" values="0 0 0 0 0 0 0 0 0 0 0 0 0 0 0 0 0 0 127 0" result="hardAlpha"/>
<feOffset dy="1.54987"/>
<feGaussianBlur stdDeviation="1.54987"/>
<feComposite in2="hardAlpha" operator="out"/>
<feColorMatrix type="matrix" values="0 0 0 0 0 0 0 0 0 0 0 0 0 0 0 0 0 0 0.25 0"/>
<feBlend mode="normal" in2="BackgroundImageFix" result="effect1_dropShadow_1524_2"/>
<feBlend mode="normal" in="SourceGraphic" in2="effect1_dropShadow_1524_2" result="shape"/>
</filter>
<linearGradient id="paint0_linear_1524_2" x1="-75.776" y1="3.74908e-06" x2="385.024" y2="384" gradientUnits="userSpaceOnUse">
<stop stop-color="#AA4465"/>
<stop offset="1" stop-color="#FF495C"/>
</linearGradient>
</defs>
</svg>
